<svg width="24" height="24" viewBox="0 0 24 24" fill="none" xmlns="http://www.w3.org/2000/svg">
<path d="M14.43 18.8201C14.62 18.8201 14.81 18.7501 14.96 18.6001L21.03 12.5301C21.32 12.2401 21.32 11.7601 21.03 11.4701L14.96 5.40012C14.67 5.11012 14.19 5.11012 13.9 5.40012C13.61 5.69012 13.61 6.17012 13.9 6.46012L19.44 12.0001L13.9 17.5401C13.61 17.8301 13.61 18.3101 13.9 18.6001C14.04 18.7501 14.24 18.8201 14.43 18.8201Z" fill="white"/>
<path d="M3.50002 12.75H20.33C20.74 12.75 21.08 12.41 21.08 12C21.08 11.59 20.74 11.25 20.33 11.25H3.50002C3.09002 11.25 2.75002 11.59 2.75002 12C2.75002 12.41 3.09002 12.75 3.50002 12.75Z" fill="white"/>
</svg>
