<svg width="32" height="32" viewBox="0 0 32 32" fill="none" xmlns="http://www.w3.org/2000/svg">
<path d="M22.9867 30.3334H9.01336C5.28003 30.3334 2.90669 28.1067 2.69336 24.3867L2.00003 13.3867C1.89336 11.72 2.46669 10.12 3.61336 8.90669C4.74669 7.69335 6.34669 7.00002 8.00003 7.00002C8.42669 7.00002 8.84003 6.74669 9.04003 6.34669L10 4.44002C10.7867 2.88002 12.76 1.66669 14.48 1.66669H17.5334C19.2534 1.66669 21.2134 2.88002 22 4.42669L22.96 6.37335C23.16 6.74669 23.56 7.00002 24 7.00002C25.6534 7.00002 27.2534 7.69335 28.3867 8.90669C29.5334 10.1334 30.1067 11.72 30 13.3867L29.3067 24.4C29.0667 28.1734 26.76 30.3334 22.9867 30.3334ZM14.48 3.66669C13.4934 3.66669 12.24 4.44002 11.7867 5.33335L10.8267 7.25335C10.2667 8.33335 9.18669 9.00002 8.00003 9.00002C6.88003 9.00002 5.84003 9.45335 5.06669 10.2667C4.30669 11.08 3.92003 12.1467 4.00003 13.2534L4.69336 24.2667C4.85336 26.96 6.30669 28.3334 9.01336 28.3334H22.9867C25.68 28.3334 27.1334 26.96 27.3067 24.2667L28 13.2534C28.0667 12.1467 27.6934 11.08 26.9334 10.2667C26.16 9.45335 25.12 9.00002 24 9.00002C22.8134 9.00002 21.7334 8.33335 21.1734 7.28002L20.2 5.33335C19.76 4.45335 18.5067 3.68002 17.52 3.68002H14.48V3.66669Z" fill="white"/>
<path d="M18 11.6667H14C13.4533 11.6667 13 11.2134 13 10.6667C13 10.12 13.4533 9.66669 14 9.66669H18C18.5467 9.66669 19 10.12 19 10.6667C19 11.2134 18.5467 11.6667 18 11.6667Z" fill="white"/>
<path d="M16 25C13.0533 25 10.6666 22.6133 10.6666 19.6666C10.6666 16.72 13.0533 14.3333 16 14.3333C18.9466 14.3333 21.3333 16.72 21.3333 19.6666C21.3333 22.6133 18.9466 25 16 25ZM16 16.3333C14.16 16.3333 12.6666 17.8266 12.6666 19.6666C12.6666 21.5066 14.16 23 16 23C17.84 23 19.3333 21.5066 19.3333 19.6666C19.3333 17.8266 17.84 16.3333 16 16.3333Z" fill="white"/>
</svg>
