<svg width="24" height="24" viewBox="0 0 24 24" fill="none" xmlns="http://www.w3.org/2000/svg">
<path fill-rule="evenodd" clip-rule="evenodd" d="M7 3.75C5.87283 3.75 4.79183 4.19777 3.9948 4.9948C3.19777 5.79183 2.75 6.87283 2.75 8V20.92C2.75 21.129 2.992 21.245 3.156 21.115L5.984 18.853C6.47158 18.4628 7.07748 18.2501 7.702 18.25H17C18.1272 18.25 19.2082 17.8022 20.0052 17.0052C20.8022 16.2082 21.25 15.1272 21.25 14V8C21.25 6.87283 20.8022 5.79183 20.0052 4.9948C19.2082 4.19777 18.1272 3.75 17 3.75H7ZM1.25 8C1.25 6.47501 1.8558 5.01247 2.93414 3.93414C4.01247 2.8558 5.47501 2.25 7 2.25H17C18.525 2.25 19.9875 2.8558 21.0659 3.93414C22.1442 5.01247 22.75 6.47501 22.75 8V14C22.75 15.525 22.1442 16.9875 21.0659 18.0659C19.9875 19.1442 18.525 19.75 17 19.75H7.702C7.418 19.75 7.142 19.847 6.921 20.024L4.093 22.286C2.947 23.203 1.25 22.386 1.25 20.919V8Z" fill="white"/>
<path d="M8.3 11.05C8.3 11.3816 8.16831 11.6995 7.93389 11.9339C7.69947 12.1684 7.38152 12.3 7.05 12.3C6.71848 12.3 6.40054 12.1684 6.16612 11.9339C5.9317 11.6995 5.8 11.3816 5.8 11.05C5.8 10.7185 5.9317 10.4006 6.16612 10.1662C6.40054 9.93174 6.71848 9.80005 7.05 9.80005C7.38152 9.80005 7.69947 9.93174 7.93389 10.1662C8.16831 10.4006 8.3 10.7185 8.3 11.05ZM13.3 11.05C13.3 11.3816 13.1683 11.6995 12.9339 11.9339C12.6995 12.1684 12.3815 12.3 12.05 12.3C11.7185 12.3 11.4005 12.1684 11.1661 11.9339C10.9317 11.6995 10.8 11.3816 10.8 11.05C10.8 10.7185 10.9317 10.4006 11.1661 10.1662C11.4005 9.93174 11.7185 9.80005 12.05 9.80005C12.3815 9.80005 12.6995 9.93174 12.9339 10.1662C13.1683 10.4006 13.3 10.7185 13.3 11.05ZM18.3 11.05C18.3 11.3816 18.1683 11.6995 17.9339 11.9339C17.6995 12.1684 17.3815 12.3 17.05 12.3C16.7185 12.3 16.4005 12.1684 16.1661 11.9339C15.9317 11.6995 15.8 11.3816 15.8 11.05C15.8 10.7185 15.9317 10.4006 16.1661 10.1662C16.4005 9.93174 16.7185 9.80005 17.05 9.80005C17.3815 9.80005 17.6995 9.93174 17.9339 10.1662C18.1683 10.4006 18.3 10.7185 18.3 11.05Z" fill="white"/>
</svg>
