<svg width="20" height="20" viewBox="0 0 20 20" fill="none" xmlns="http://www.w3.org/2000/svg">
<path d="M9.96801 18.1999C9.83201 18.1999 9.69601 18.1999 9.56001 18.1919C5.08001 17.9919 1.33601 14.3839 1.02401 9.98394C0.752007 6.20794 2.93601 2.67995 6.45601 1.19995C7.45601 0.783945 7.98401 1.10395 8.20801 1.33595C8.43201 1.55995 8.74401 2.07994 8.32801 3.03194C7.96001 3.87995 7.77601 4.78395 7.78401 5.71195C7.80001 9.25595 10.744 12.2639 14.336 12.4079C14.856 12.4319 15.368 12.3919 15.864 12.3039C16.92 12.1119 17.36 12.5359 17.528 12.8079C17.696 13.0799 17.888 13.6639 17.248 14.5279C15.552 16.8479 12.856 18.1999 9.96801 18.1999ZM2.21601 9.89595C2.48801 13.7039 5.73601 16.8239 9.60801 16.9919C12.24 17.1199 14.736 15.9199 16.272 13.8239C16.392 13.6559 16.448 13.5359 16.472 13.4719C16.4 13.4639 16.272 13.4559 16.072 13.4959C15.488 13.5999 14.88 13.6399 14.28 13.6159C10.056 13.4479 6.60001 9.90394 6.57601 5.72794C6.57601 4.62394 6.79201 3.55995 7.23201 2.55995C7.31201 2.38395 7.32801 2.26395 7.33601 2.19995C7.26401 2.19995 7.13601 2.21595 6.92801 2.30395C3.88001 3.58395 1.99201 6.63995 2.21601 9.89595Z" fill="#252525"/>
</svg>
